# xmcd CD database file
#
# Track frame offsets:
#	150
#	25649
#	55432
#	68801
#	98457
#	113816
#	142616
#
# Disc length: 3615 seconds
#
# Revision: 1
# Processed by: cddbd v1.5.2PL0 Copyright (c) Steve Scherf et al.
# Submitted via: CDex 1.70beta2
#
DISCID=4e0e1d07
DTITLE=Compilation - Wroclaw Industrial Festival [CD2)
DYEAR=2011
DGENRE=Expérimental
TTITLE0=Fjernlys - Silence
TTITLE1=Magic Carpathians Project - So Transparent
TTITLE2=Kaleka - Distance
TTITLE3=Amber Asylum - Perfect Calm
TTITLE4=Sieben - Jack In The Pulpit
TTITLE5=Hybryds - Silence (Live)
TTITLE6=Thighpaulsandra - The More I Know Men The Better I Like Dogs
EXTD=YEAR: 2011
EXTT0=
EXTT1=
EXTT2=
EXTT3=
EXTT4=
EXTT5=
EXTT6=
PLAYORDER=
